<?xml version="1.0" standalone="no"?>
<!DOCTYPE svg PUBLIC "-//W3C//DTD SVG 20010904//EN"
 "http://www.w3.org/TR/2001/REC-SVG-20010904/DTD/svg10.dtd">
<svg version="1.0" xmlns="http://www.w3.org/2000/svg"
 width="1024.000000pt" height="1024.000000pt" viewBox="0 0 1024.000000 1024.000000"
 preserveAspectRatio="xMidYMid meet">
<metadata>
Created by potrace 1.11, written by Peter Selinger 2001-2013
</metadata>
<g transform="translate(0.000000,1024.000000) scale(0.100000,-0.100000)"
fill="#000000" stroke="none">
<path d="M5135 10025 c-1521 -393 -2545 -1369 -2774 -2644 -12 -63 -21 -127
-21 -143 0 -15 -4 -28 -10 -28 -18 0 -203 62 -315 105 -461 178 -770 413 -998
760 -141 215 -271 532 -332 810 -10 44 -21 86 -25 94 -4 8 -17 -26 -32 -85
l-26 -99 -7 43 c-4 23 -11 44 -14 47 -10 6 -120 -451 -175 -725 -137 -678
-200 -1235 -212 -1860 -27 -1380 280 -2505 895 -3280 94 -118 318 -344 431
-433 239 -190 502 -332 787 -427 428 -141 875 -179 1372 -114 768 99 1459 300
1793 520 81 54 168 131 168 149 0 8 16 29 35 47 22 21 47 63 68 114 30 73 40
87 112 151 237 209 413 452 525 722 121 294 151 672 84 1060 -55 319 -192 723
-402 1180 -36 79 -224 460 -417 845 -420 837 -538 1107 -640 1456 -73 252
-105 459 -105 675 0 401 130 726 406 1014 41 43 74 81 74 84 0 2 -16 1 -35 -3
-20 -5 -33 -4 -29 1 8 13 5 13 -181 -36z"/>
<path d="M10145 3354 c-1210 -212 -2426 -562 -3520 -1014 -687 -283 -1474
-682 -2070 -1050 -270 -166 -745 -482 -935 -621 -262 -192 -545 -417 -804
-641 l-31 -27 117 -1 117 0 183 126 c836 575 1910 1138 2908 1524 1149 445
2332 740 3585 895 149 18 500 55 527 55 17 0 18 21 18 385 0 212 -3 385 -7
384 -5 -1 -44 -7 -88 -15z"/>
</g>
</svg>
